<svg width="950" height="738" viewBox="0 0 950 738" fill="none" xmlns="http://www.w3.org/2000/svg">
<g clip-path="url(#clip0_1_2)">
<path d="M540.935 360.86C562.311 360.86 579.641 343.525 579.641 322.142C579.641 300.759 562.311 283.425 540.935 283.425C519.558 283.425 502.228 300.759 502.228 322.142C502.228 343.525 519.558 360.86 540.935 360.86Z" fill="white"/>
<path d="M635.796 371.896L595.347 331.436C598.448 326.612 600.549 321.214 601.526 315.563C602.503 309.912 602.336 304.123 601.035 298.537C599.735 292.952 597.326 287.684 593.953 283.047C590.58 278.41 586.311 274.497 581.398 271.54C572.148 266.013 561.159 264.162 550.609 266.354C540.059 268.546 530.717 274.621 524.433 283.377C518.65 291.487 515.873 301.359 516.578 311.296C517.284 321.232 521.428 330.613 528.298 337.824C535.169 345.036 544.336 349.628 554.224 350.811C564.113 351.994 574.104 349.694 582.481 344.307L622.93 384.767C624.636 386.473 626.95 387.43 629.362 387.429C631.774 387.429 634.087 386.47 635.793 384.764C637.499 383.057 638.457 380.744 638.458 378.331C638.458 375.918 637.501 373.604 635.796 371.896ZM580.97 329.926C575.959 334.939 569.364 338.059 562.31 338.754C555.256 339.449 548.18 337.676 542.286 333.737C536.393 329.798 532.047 323.937 529.99 317.152C527.932 310.368 528.29 303.079 531.002 296.529C533.715 289.979 538.614 284.572 544.865 281.229C551.116 277.887 558.332 276.816 565.284 278.199C572.235 279.583 578.493 283.334 582.989 288.815C587.486 294.295 589.943 301.166 589.943 308.256C589.949 312.281 589.159 316.268 587.619 319.987C586.079 323.705 583.819 327.083 580.97 329.926Z" fill="#2F3542"/>
<path d="M929.003 431.578C1032.45 546.008 732.583 710.918 490.287 710.918C247.99 710.918 80.3589 583.142 51.5701 431.578C-18.233 64.0866 646.309 -169.489 490.287 152.238C262.866 621.191 847.54 341.462 929.003 431.578Z" fill="white"/>
<path d="M882.591 458.66C986.033 573.09 686.17 738 443.874 738C201.577 738 33.9462 610.224 5.15731 458.66C-64.6458 91.1687 599.896 -142.407 443.874 179.32C216.453 648.273 801.127 368.544 882.591 458.66Z" fill="#2F3542"/>
<path d="M144.647 190.373C72.0622 187.176 15.7829 171.514 16.5222 154.717C16.9655 144.646 37.5078 136.548 72.8817 132.5C73.0083 132.485 73.1366 132.495 73.2594 132.529C73.3822 132.564 73.4969 132.622 73.597 132.701C73.6971 132.78 73.7806 132.878 73.8427 132.99C73.9047 133.101 73.9441 133.224 73.9586 133.351C73.9731 133.477 73.9624 133.606 73.9271 133.728C73.8918 133.851 73.8326 133.965 73.7529 134.065C73.6733 134.164 73.5747 134.247 73.4629 134.309C73.351 134.37 73.2282 134.409 73.1014 134.422C39.7792 138.236 18.8397 146.045 18.4542 154.802C17.7856 169.992 75.6138 185.396 144.732 188.44C213.851 191.484 272.809 181.224 273.478 166.034C273.865 157.24 253.562 147.593 220.492 140.859C220.367 140.834 220.248 140.784 220.143 140.714C220.037 140.643 219.947 140.551 219.876 140.445C219.806 140.339 219.757 140.221 219.733 140.096C219.709 139.971 219.709 139.842 219.734 139.718C219.76 139.593 219.81 139.474 219.881 139.369C219.952 139.263 220.043 139.173 220.15 139.103C220.256 139.033 220.375 138.985 220.5 138.961C220.625 138.937 220.753 138.937 220.878 138.963C255.978 146.112 275.855 156.009 275.41 166.119C274.67 182.916 217.233 193.57 144.647 190.373Z" fill="#6C63FF"/>
<path d="M80.181 193.186C86.2532 204.724 95.2481 214.465 106.266 221.435C117.284 228.404 129.938 232.356 142.962 232.897C155.987 233.438 168.925 230.548 180.482 224.516C192.039 218.484 201.811 209.522 208.818 198.527C165.873 199.106 122.93 197.323 80.181 193.186Z" fill="#FF6348"/>
<path d="M216.847 178.181C220.502 167.217 221.555 155.552 219.923 144.11C218.291 132.668 214.019 121.763 207.446 112.258C200.872 102.753 192.177 94.9085 182.049 89.3461C171.92 83.7837 160.637 80.6558 149.091 80.2098C137.545 79.7638 126.054 82.012 115.527 86.7765C105 91.541 95.7259 98.691 88.4391 107.661C81.1523 116.63 76.0525 127.173 73.5435 138.455C71.0344 149.737 71.185 161.449 73.9832 172.663C121.166 180.675 169.188 182.53 216.847 178.181Z" fill="#FF6348"/>
<path d="M163.251 128.254C168.057 128.254 171.953 124.356 171.953 119.549C171.953 114.741 168.057 110.844 163.251 110.844C158.445 110.844 154.548 114.741 154.548 119.549C154.548 124.356 158.445 128.254 163.251 128.254Z" fill="white"/>
<path d="M118.462 162.097C126.473 162.097 132.966 155.602 132.966 147.589C132.966 139.576 126.473 133.081 118.462 133.081C110.452 133.081 103.958 139.576 103.958 147.589C103.958 155.602 110.452 162.097 118.462 162.097Z" fill="white"/>
<path d="M337.368 147.885C342.708 147.885 347.037 143.555 347.037 138.213C347.037 132.872 342.708 128.542 337.368 128.542C332.028 128.542 327.699 132.872 327.699 138.213C327.699 143.555 332.028 147.885 337.368 147.885Z" fill="#FF6348"/>
<path d="M118.841 443.854C122.045 443.854 124.642 441.256 124.642 438.051C124.642 434.846 122.045 432.247 118.841 432.247C115.637 432.247 113.039 434.846 113.039 438.051C113.039 441.256 115.637 443.854 118.841 443.854Z" fill="#E6E6E6"/>
<path d="M524.953 643.101C528.157 643.101 530.755 640.502 530.755 637.297C530.755 634.092 528.157 631.494 524.953 631.494C521.749 631.494 519.151 634.092 519.151 637.297C519.151 640.502 521.749 643.101 524.953 643.101Z" fill="#E6E6E6"/>
<path d="M146.882 331.657C148.484 331.657 149.783 330.358 149.783 328.755C149.783 327.153 148.484 325.853 146.882 325.853C145.28 325.853 143.981 327.153 143.981 328.755C143.981 330.358 145.28 331.657 146.882 331.657Z" fill="#E6E6E6"/>
<path d="M386.681 548.313C388.283 548.313 389.582 547.014 389.582 545.412C389.582 543.809 388.283 542.51 386.681 542.51C385.079 542.51 383.781 543.809 383.781 545.412C383.781 547.014 385.079 548.313 386.681 548.313Z" fill="#E6E6E6"/>
<path d="M822.768 520.264C824.371 520.264 825.669 518.965 825.669 517.362C825.669 515.76 824.371 514.461 822.768 514.461C821.166 514.461 819.868 515.76 819.868 517.362C819.868 518.965 821.166 520.264 822.768 520.264Z" fill="#E6E6E6"/>
<path d="M686.431 606.346C688.033 606.346 689.332 605.047 689.332 603.445C689.332 601.842 688.033 600.543 686.431 600.543C684.829 600.543 683.53 601.842 683.53 603.445C683.53 605.047 684.829 606.346 686.431 606.346Z" fill="#E6E6E6"/>
<path d="M544.292 501.887C545.894 501.887 547.192 500.588 547.192 498.985C547.192 497.383 545.894 496.084 544.292 496.084C542.689 496.084 541.391 497.383 541.391 498.985C541.391 500.588 542.689 501.887 544.292 501.887Z" fill="#E6E6E6"/>
<path d="M360.574 215.591C362.176 215.591 363.475 214.292 363.475 212.689C363.475 211.087 362.176 209.787 360.574 209.787C358.972 209.787 357.673 211.087 357.673 212.689C357.673 214.292 358.972 215.591 360.574 215.591Z" fill="#E6E6E6"/>
<path d="M383.781 72.4428C385.383 72.4428 386.681 71.1436 386.681 69.5411C386.681 67.9385 385.383 66.6393 383.781 66.6393C382.178 66.6393 380.88 67.9385 380.88 69.5411C380.88 71.1436 382.178 72.4428 383.781 72.4428Z" fill="#E6E6E6"/>
<path d="M370.244 675.019C371.846 675.019 373.144 673.72 373.144 672.117C373.144 670.514 371.846 669.215 370.244 669.215C368.641 669.215 367.343 670.514 367.343 672.117C367.343 673.72 368.641 675.019 370.244 675.019Z" fill="#E6E6E6"/>
<path d="M227.137 614.084C228.739 614.084 230.038 612.785 230.038 611.182C230.038 609.58 228.739 608.281 227.137 608.281C225.535 608.281 224.236 609.58 224.236 611.182C224.236 612.785 225.535 614.084 227.137 614.084Z" fill="#E6E6E6"/>
<path d="M680.629 509.625C682.231 509.625 683.53 508.326 683.53 506.723C683.53 505.12 682.231 503.821 680.629 503.821C679.027 503.821 677.728 505.12 677.728 506.723C677.728 508.326 679.027 509.625 680.629 509.625Z" fill="#E6E6E6"/>
<path d="M143.468 226.134C148.274 226.134 152.17 222.237 152.17 217.429C152.17 212.621 148.274 208.724 143.468 208.724C138.661 208.724 134.765 212.621 134.765 217.429C134.765 222.237 138.661 226.134 143.468 226.134Z" fill="white"/>
<path d="M340.269 351.001C340.269 377 300.083 437.583 288.34 454.732C287.985 455.25 287.51 455.675 286.955 455.968C286.4 456.261 285.781 456.414 285.153 456.414C284.526 456.414 283.907 456.261 283.352 455.968C282.797 455.675 282.321 455.25 281.967 454.732C270.223 437.583 230.038 377 230.038 351.001C230.038 343.761 231.464 336.592 234.234 329.903C237.003 323.214 241.063 317.137 246.181 312.017C251.299 306.898 257.375 302.837 264.062 300.066C270.749 297.296 277.916 295.87 285.153 295.87C292.391 295.87 299.558 297.296 306.245 300.066C312.932 302.837 319.008 306.898 324.126 312.017C329.244 317.137 333.303 323.214 336.073 329.903C338.843 336.592 340.269 343.761 340.269 351.001Z" fill="white"/>
<path d="M285.153 375.182C300.64 375.182 313.194 362.624 313.194 347.132C313.194 331.641 300.64 319.083 285.153 319.083C269.667 319.083 257.112 331.641 257.112 347.132C257.112 362.624 269.667 375.182 285.153 375.182Z" fill="#FF6348"/>
<path d="M284.67 486.411C302.56 486.411 317.062 483.597 317.062 480.125C317.062 476.652 302.56 473.838 284.67 473.838C266.78 473.838 252.278 476.652 252.278 480.125C252.278 483.597 266.78 486.411 284.67 486.411Z" fill="white"/>
<path d="M789.843 307.497C789.598 307.973 789.39 308.467 789.223 308.975L743.02 321.817L734.694 313.667L720.755 324.628L734.093 340.49C735.17 341.771 736.634 342.668 738.265 343.047C739.896 343.425 741.605 343.264 743.136 342.588L793.046 320.55C794.739 321.725 796.75 322.357 798.811 322.362C800.872 322.367 802.886 321.743 804.584 320.575C806.283 319.407 807.585 317.749 808.319 315.822C809.053 313.896 809.182 311.791 808.691 309.789C808.2 307.786 807.11 305.981 805.568 304.613C804.026 303.245 802.104 302.379 800.058 302.13C798.012 301.882 795.939 302.262 794.114 303.22C792.289 304.179 790.799 305.671 789.843 307.497Z" fill="#FFB8B8"/>
<path d="M741.392 322.57L724.05 336.072C723.556 336.456 722.986 336.729 722.378 336.873C721.769 337.017 721.137 337.028 720.523 336.905C719.91 336.782 719.331 336.529 718.825 336.162C718.318 335.795 717.897 335.323 717.589 334.778L706.811 315.698C704.86 313.161 703.994 309.954 704.403 306.78C704.812 303.606 706.463 300.724 708.994 298.765C711.524 296.807 714.728 295.932 717.902 296.334C721.077 296.735 723.962 298.379 725.927 300.905L741.725 315.987C742.177 316.419 742.531 316.944 742.762 317.525C742.993 318.106 743.097 318.73 743.065 319.355C743.034 319.979 742.868 320.59 742.579 321.145C742.29 321.699 741.885 322.186 741.392 322.57Z" fill="#6C63FF"/>
<path d="M794.273 301.111L811.86 309.025C812.596 309.357 813.171 309.967 813.458 310.723C813.744 311.478 813.719 312.316 813.388 313.053L811.305 317.682C811.55 317.793 811.741 317.997 811.837 318.248C811.932 318.5 811.924 318.779 811.814 319.025L810.982 320.876C810.871 321.121 810.667 321.312 810.416 321.408C810.164 321.503 809.885 321.495 809.64 321.386L808.807 323.237C809.052 323.349 809.243 323.552 809.338 323.804C809.433 324.055 809.425 324.334 809.316 324.58L808.483 326.432C808.372 326.677 808.168 326.868 807.917 326.963C807.666 327.059 807.387 327.051 807.141 326.941L795.897 351.94C795.566 352.677 794.955 353.251 794.2 353.538C793.445 353.824 792.607 353.799 791.871 353.468L774.284 345.553C773.548 345.222 772.973 344.611 772.687 343.856C772.4 343.101 772.425 342.263 772.757 341.526L790.247 302.639C790.579 301.902 791.189 301.327 791.944 301.041C792.699 300.754 793.537 300.779 794.273 301.111Z" fill="#3F3D56"/>
<path d="M777.477 343.09L791.586 349.446C792.293 349.762 793.096 349.786 793.82 349.512C794.545 349.238 795.132 348.689 795.453 347.984L801.969 333.486L804.232 328.46L810.129 315.342C810.444 314.637 810.468 313.835 810.194 313.112C809.92 312.389 809.371 311.804 808.668 311.484L804.232 309.484L794.549 305.129C793.843 304.813 793.04 304.791 792.316 305.067C791.593 305.343 791.009 305.895 790.693 306.601L784.988 319.282L778.493 333.719L776.016 339.232C775.7 339.938 775.676 340.74 775.95 341.463C776.224 342.186 776.773 342.771 777.477 343.09Z" fill="#F2F2F2"/>
<path d="M747.998 522.725L759.852 522.725L765.492 476.987L747.996 476.988L747.998 522.725Z" fill="#FFB8B8"/>
<path d="M744.974 518.854L768.32 518.853C770.273 518.853 772.209 519.238 774.014 519.986C775.819 520.734 777.459 521.83 778.841 523.212C780.222 524.594 781.318 526.234 782.066 528.04C782.814 529.845 783.198 531.781 783.198 533.735V534.218L744.975 534.22L744.974 518.854Z" fill="#2F2E41"/>
<path d="M778.94 519.824L790.794 519.823L796.434 474.085L778.938 474.086L778.94 519.824Z" fill="#FFB8B8"/>
<path d="M775.916 515.952L799.262 515.951C801.215 515.951 803.151 516.336 804.956 517.084C806.761 517.832 808.401 518.928 809.783 520.31C811.164 521.692 812.26 523.333 813.008 525.138C813.755 526.944 814.14 528.879 814.14 530.833V531.317L775.917 531.318L775.916 515.952Z" fill="#2F2E41"/>
<path d="M694.824 415.398C697.35 422.887 702.14 429.406 708.533 434.052C714.925 438.698 722.603 441.241 730.504 441.33L731.103 441.339C737.224 441.513 744.408 439.54 751.457 436.706C765.381 431.106 778.754 422.14 782.302 419.674L776.288 477.503L773.852 500.949C773.79 501.555 773.856 502.168 774.046 502.748C774.235 503.327 774.544 503.86 774.952 504.313C775.36 504.766 775.858 505.128 776.415 505.377C776.972 505.625 777.574 505.754 778.183 505.756H793.2C794.163 505.756 795.099 505.438 795.861 504.85C796.624 504.262 797.171 503.438 797.415 502.506L822.208 408.057C822.951 405.23 823.011 402.267 822.382 399.412C821.753 396.557 820.454 393.893 818.591 391.641C816.729 389.388 814.357 387.612 811.671 386.459C808.986 385.305 806.065 384.808 803.149 385.009L751.651 388.539L755.248 374.147L709.279 371.09L709.144 371.187C708.042 371.99 706.969 372.831 705.944 373.711C703.381 375.879 701.109 378.37 699.185 381.12C695.742 386.056 693.547 391.753 692.787 397.723C692.028 403.693 692.727 409.758 694.824 415.398Z" fill="#2F3542"/>
<path d="M694.824 415.398C697.35 422.887 702.14 429.406 708.533 434.052C714.925 438.698 722.603 441.241 730.504 441.33C738.059 437.505 745.35 433.178 752.327 428.379L751.457 436.706L743.877 509.654C743.815 510.26 743.881 510.873 744.071 511.452C744.26 512.032 744.569 512.565 744.977 513.018C745.385 513.471 745.883 513.833 746.44 514.082C746.997 514.33 747.599 514.459 748.208 514.461H763.225C764.188 514.461 765.124 514.143 765.886 513.555C766.649 512.967 767.196 512.143 767.44 511.211L776.288 477.503L792.233 416.762C792.976 413.935 793.036 410.972 792.407 408.117C791.778 405.262 790.479 402.598 788.616 400.346C786.754 398.093 784.382 396.317 781.696 395.164C779.011 394.01 776.09 393.513 773.174 393.713L721.676 397.244L725.273 382.852L699.185 381.12C695.742 386.056 693.547 391.753 692.787 397.723C692.028 403.693 692.727 409.758 694.824 415.398Z" fill="#2F3542"/>
<path d="M705.878 377.048L705.532 377.006L697.511 337.558C697.443 337.216 690.886 303.19 710.987 285.402L711.337 282.967C711.427 282.344 711.65 281.748 711.993 281.22C712.335 280.692 712.788 280.244 713.319 279.908C713.851 279.571 714.45 279.354 715.074 279.272C715.698 279.189 716.332 279.243 716.933 279.43L735.87 285.305C736.942 285.635 737.845 286.368 738.389 287.349C738.933 288.33 739.076 289.484 738.789 290.569L736.948 297.573C739.501 300.571 769.548 336.757 759.082 364.635L754.394 382.966L705.878 377.048Z" fill="#FF6348"/>
<path d="M784.51 346.261C784.057 346.546 783.627 346.866 783.224 347.218L736.911 334.782L733.883 323.529L716.309 325.881L719.733 346.322C720.01 347.974 720.815 349.491 722.027 350.646C723.239 351.801 724.793 352.531 726.455 352.728L780.634 359.13C781.495 361.003 782.905 362.57 784.678 363.622C786.451 364.674 788.501 365.161 790.558 365.019C792.614 364.877 794.578 364.112 796.189 362.825C797.8 361.539 798.981 359.793 799.576 357.819C800.17 355.844 800.15 353.736 799.517 351.774C798.884 349.812 797.669 348.088 796.034 346.834C794.398 345.579 792.42 344.852 790.361 344.75C788.302 344.647 786.261 345.174 784.51 346.261Z" fill="#FFB8B8"/>
<path d="M735.126 334.602L713.33 337.411C712.71 337.491 712.08 337.436 711.483 337.25C710.886 337.065 710.336 336.752 709.87 336.335C709.405 335.917 709.035 335.404 708.785 334.831C708.535 334.257 708.412 333.637 708.424 333.012L708.84 311.1C708.449 307.923 709.333 304.722 711.299 302.197C713.264 299.672 716.151 298.029 719.325 297.63C722.499 297.23 725.702 298.106 728.232 300.065C730.761 302.025 732.411 304.907 732.819 308.081L738.758 329.103C738.928 329.705 738.966 330.337 738.87 330.955C738.774 331.573 738.546 332.163 738.201 332.685C737.856 333.206 737.403 333.648 736.873 333.979C736.342 334.31 735.747 334.522 735.126 334.602Z" fill="#FF6348"/>
<path d="M728.991 274.075C742.107 274.075 752.74 263.439 752.74 250.319C752.74 237.199 742.107 226.563 728.991 226.563C715.875 226.563 705.242 237.199 705.242 250.319C705.242 263.439 715.875 274.075 728.991 274.075Z" fill="#FFB8B8"/>
<path d="M727.742 252.303L724.768 246.887C719.136 269.841 729.085 288.838 729.085 288.838L690.473 270.847L690.84 264.464L687.02 268.801L681.53 265.775L680.805 261.634L676.661 262.661L691.787 235.204C706.468 209.077 727.81 219.052 727.81 219.052C761.765 217.437 757.618 250.946 757.618 250.946L727.742 252.303Z" fill="#2F2E41"/>
<path d="M457.398 429.335C462.874 425.823 456.215 405.661 442.525 384.299C428.835 362.938 413.299 348.468 407.823 351.979C402.348 355.491 409.007 375.654 422.696 397.015C436.386 418.376 451.923 432.846 457.398 429.335Z" fill="#2F3542"/>
</g>
<defs>
<clipPath id="clip0_1_2">
<rect width="950" height="738" fill="white"/>
</clipPath>
</defs>
</svg>
