<svg width="526" height="178" viewBox="0 0 526 178" fill="none" xmlns="http://www.w3.org/2000/svg">
<g clip-path="url(#clip0_1_2)">
<path d="M234.912 88.84V97.928H249.568V106.376H234.912V116.232H251.488V125H223.968V80.072H251.488V88.84H234.912ZM269.537 95.24C270.817 93.2773 272.417 91.7413 274.337 90.632C276.257 89.48 278.39 88.904 280.737 88.904V100.488H277.729C274.998 100.488 272.95 101.085 271.585 102.28C270.22 103.432 269.537 105.48 269.537 108.424V125H258.593V89.288H269.537V95.24ZM319.632 106.568C319.632 107.592 319.568 108.659 319.44 109.768H294.672C294.843 111.987 295.547 113.693 296.784 114.888C298.064 116.04 299.621 116.616 301.456 116.616C304.187 116.616 306.085 115.464 307.152 113.16H318.8C318.203 115.507 317.115 117.619 315.536 119.496C314 121.373 312.059 122.845 309.712 123.912C307.365 124.979 304.741 125.512 301.84 125.512C298.341 125.512 295.227 124.765 292.496 123.272C289.765 121.779 287.632 119.645 286.096 116.872C284.56 114.099 283.792 110.856 283.792 107.144C283.792 103.432 284.539 100.189 286.032 97.416C287.568 94.6427 289.701 92.5093 292.432 91.016C295.163 89.5227 298.299 88.776 301.84 88.776C305.296 88.776 308.368 89.5013 311.056 90.952C313.744 92.4027 315.835 94.472 317.328 97.16C318.864 99.848 319.632 102.984 319.632 106.568ZM308.432 103.688C308.432 101.811 307.792 100.317 306.512 99.208C305.232 98.0987 303.632 97.544 301.712 97.544C299.877 97.544 298.32 98.0773 297.04 99.144C295.803 100.211 295.035 101.725 294.736 103.688H308.432ZM422.142 57.32L405.534 125H382.398L373.086 83.528L363.582 125H340.446L324.03 57.32H344.382L352.254 103.592L362.91 57.32H383.55L393.918 103.208L401.79 57.32H422.142ZM450.478 88.904C454.659 88.904 457.987 90.2693 460.462 93C462.979 95.688 464.238 99.4 464.238 104.136V125H453.358V105.608C453.358 103.219 452.739 101.363 451.502 100.04C450.265 98.7173 448.601 98.056 446.51 98.056C444.419 98.056 442.755 98.7173 441.518 100.04C440.281 101.363 439.662 103.219 439.662 105.608V125H428.718V89.288H439.662V94.024C440.771 92.4453 442.265 91.208 444.142 90.312C446.019 89.3733 448.131 88.904 450.478 88.904ZM499.811 117.064H483.043L480.355 125H468.899L485.155 80.072H497.827L514.083 125H502.499L499.811 117.064ZM496.995 108.616L491.427 92.168L485.923 108.616H496.995Z" fill="#2F3542"/>
<g clip-path="url(#clip1_1_2)">
<path d="M21.4167 61.225L109.885 25.875L198.354 61.225L109.885 96.575L21.4167 61.225Z" fill="#2F3542" stroke="#2F3542" stroke-width="25" stroke-linejoin="round"/>
<path d="M198.354 61.6883V100.503" stroke="#2F3542" stroke-width="25" stroke-linecap="round" stroke-linejoin="round"/>
<path d="M61.6294 79.8481V132.206C61.6294 132.206 81.8719 152.125 109.885 152.125C137.898 152.125 158.141 132.206 158.141 132.206V79.8481" stroke="#2F3542" stroke-width="25" stroke-linecap="round" stroke-linejoin="round"/>
</g>
</g>
<defs>
<clipPath id="clip0_1_2">
<rect width="526" height="178" fill="white"/>
</clipPath>
<clipPath id="clip1_1_2">
<rect width="202" height="202" fill="white" transform="translate(13 -12)"/>
</clipPath>
</defs>
</svg>
