<svg width="800" height="800" viewBox="0 0 800 800" fill="none" xmlns="http://www.w3.org/2000/svg">
<path d="M400 733.333C584.095 733.333 733.333 584.095 733.333 400C733.333 215.905 584.095 66.6667 400 66.6667C215.905 66.6667 66.6667 215.905 66.6667 400C66.6667 584.095 215.905 733.333 400 733.333Z" fill="#3B5998"/>
<path fill-rule="evenodd" clip-rule="evenodd" d="M488.583 282.63C478.195 280.552 464.163 279 455.34 279C431.445 279 429.893 289.388 429.893 306.012V335.602H489.623L484.417 396.895H429.893V583.333H355.105V396.895H316.667V335.602H355.105V297.688C355.105 245.755 379.513 216.667 440.795 216.667C462.087 216.667 477.67 219.783 497.922 223.938L488.583 282.63Z" fill="white"/>
</svg>
