<svg width="800" height="800" viewBox="0 0 800 800" fill="none" xmlns="http://www.w3.org/2000/svg">
<path d="M750 400C750 206.7 593.3 50 400 50C206.7 50 50 206.7 50 400C50 593.3 206.7 750 400 750C593.3 750 750 593.3 750 400Z" fill="#1275B1"/>
<path d="M315.465 242.304C315.465 265.668 295.213 284.608 270.233 284.608C245.251 284.608 225 265.668 225 242.304C225 218.94 245.251 200 270.233 200C295.213 200 315.465 218.94 315.465 242.304Z" fill="white"/>
<path d="M231.186 315.703H308.505V550H231.186V315.703Z" fill="white"/>
<path d="M432.99 315.703H355.67V550H432.99C432.99 550 432.99 476.24 432.99 430.123C432.99 402.44 442.443 374.638 480.155 374.638C522.775 374.638 522.52 410.863 522.32 438.928C522.06 475.61 522.68 513.048 522.68 550H600V426.342C599.345 347.385 578.77 311.003 511.083 311.003C470.885 311.003 445.967 329.253 432.99 345.763V315.703Z" fill="white"/>
</svg>
